<?xml version="1.0" encoding="UTF-8"?>
<svg id="Wa" xmlns="http://www.w3.org/2000/svg" viewBox="0 0 1000 1000">
  <defs>
    <style>
      .cls-1 {
        fill-rule: evenodd;
      }

      .cls-1, .cls-2 {
        fill: #fff;
      }

      .cls-3 {
        fill: #4b3631;
      }
    </style>
  </defs>
  <circle class="cls-3" cx="500" cy="500" r="500"/>
  <path class="cls-2" d="M242.55,758.08l37.01-138.07c-20.95-37.8-31.98-80.16-31.98-123.16,0-140.57,114.37-254.94,254.94-254.94s254.94,114.37,254.94,254.94-114.37,254.94-254.94,254.94c-42.2,0-83.88-10.65-121.18-30.89l-138.78,37.18ZM388.23,669.16l8.74,5.21c32.09,19.12,68.58,29.23,105.54,29.23,114,0,206.75-92.74,206.75-206.75s-92.75-206.75-206.75-206.75-206.75,92.74-206.75,206.75c0,37.64,10.46,74.71,30.24,107.19l5.36,8.8-20.66,77.09,77.52-20.78Z"/>
  <path class="cls-1" d="M597.35,532.31c-10.49-6.28-24.14-13.28-36.51-8.23-9.48,3.88-15.54,18.73-21.68,26.31-3.15,3.89-6.92,4.5-11.76,2.55-35.6-14.18-62.88-37.95-82.52-70.69-3.33-5.09-2.73-9.1,1.28-13.82,5.94-6.98,13.39-14.92,14.99-24.34,1.61-9.41-2.81-20.42-6.7-28.81-4.98-10.72-10.54-25.99-21.27-32.06-9.87-5.57-22.86-2.45-31.65,4.71-15.17,12.35-22.49,31.71-22.27,50.9.06,5.45.73,10.89,2,16.15,3.06,12.66,8.91,24.47,15.5,35.71,4.96,8.47,10.36,16.69,16.18,24.6,19.04,25.87,42.73,48.34,70.16,65.15,13.71,8.39,28.47,15.75,43.75,20.81,17.14,5.66,32.42,11.56,50.93,8.04,19.38-3.68,38.49-15.68,46.19-34.35,2.28-5.53,3.41-11.69,2.14-17.53-2.63-12.08-18.98-19.25-28.75-25.09Z"/>
</svg>