<?xml version="1.0" encoding="UTF-8"?>
<svg id="Ig" xmlns="http://www.w3.org/2000/svg" viewBox="0 0 1000 1000">
  <defs>
    <style>
      .cls-1 {
        fill: #4b3631;
      }

      .cls-2 {
        fill: #fff;
      }
    </style>
  </defs>
  <circle class="cls-1" cx="500.18" cy="500" r="499.82"/>
  <path class="cls-2" d="M637.9,332.78c-16.84,0-30.5,13.66-30.5,30.5s13.66,30.5,30.5,30.5,30.5-13.66,30.5-30.5-13.66-30.5-30.5-30.5Z"/>
  <path class="cls-2" d="M502.31,371.89c-70.64,0-128.11,57.47-128.11,128.11s57.47,128.11,128.11,128.11,128.11-57.47,128.11-128.11-57.47-128.11-128.11-128.11ZM502.31,582.06c-45.25,0-82.07-36.81-82.07-82.06s36.81-82.06,82.07-82.06,82.06,36.81,82.06,82.06-36.81,82.06-82.06,82.06Z"/>
  <path class="cls-2" d="M604.02,760.11h-207.69c-86.16,0-156.26-70.1-156.26-156.26v-207.7c0-86.16,70.1-156.26,156.26-156.26h207.69c86.16,0,156.27,70.09,156.27,156.26v207.7c0,86.16-70.1,156.26-156.27,156.26ZM396.33,288.84c-59.18,0-107.32,48.14-107.32,107.31v207.7c0,59.18,48.14,107.32,107.32,107.32h207.69c59.18,0,107.32-48.14,107.32-107.32v-207.7c0-59.18-48.14-107.31-107.32-107.31h-207.69Z"/>
</svg>