<?xml version="1.0" encoding="UTF-8"?>
<svg id="LinkedIn" xmlns="http://www.w3.org/2000/svg" viewBox="0 0 1000 1000">
  <defs>
    <style>
      .cls-1 {
        fill: #4b3631;
      }

      .cls-2 {
        fill: #fff;
      }
    </style>
  </defs>
  <circle class="cls-1" cx="500.18" cy="499.54" r="500"/>
  <path class="cls-2" d="M299.85,382.45h85.96v276.14h-85.96v-276.14ZM342.85,245.23c27.49,0,49.76,22.3,49.76,49.73s-22.27,49.8-49.76,49.8-49.83-22.34-49.83-49.8,22.27-49.73,49.83-49.73"/>
  <path class="cls-2" d="M439.67,382.45h82.33v37.77h1.13c11.48-21.73,39.48-44.61,81.28-44.61,86.9,0,102.93,57.15,102.93,131.52v151.45h-85.77v-134.25c0-32.05-.63-73.23-44.61-73.23s-51.49,34.88-51.49,70.89v136.59h-85.79v-276.14Z"/>
</svg>