<?xml version="1.0" encoding="UTF-8"?>
<svg id="Livello_1" data-name="Livello 1" xmlns="http://www.w3.org/2000/svg" viewBox="0 0 1920 771.78">
  <defs>
    <style>
      .cls-1 {
        fill: #fff;
      }
    </style>
  </defs>
  <g id="EQB">
    <path class="cls-1" d="M10.72,354.6C10.72,241.6,7.14,123.4,0,0h458.84v43.84c-109.76-18.18-227.64-27.28-353.63-27.28-5.84,103.26-8.77,206.86-8.77,310.76,51.95,0,94.98-.97,129.08-2.92,34.1-1.95,66.73-7.46,97.91-16.56v55.53c-31.17-8.43-64.46-13.79-99.85-16.07-35.41-2.27-77.78-3.41-127.13-3.41v43.84c0,101.97,2.92,203.6,8.77,304.92,131.83,0,250.03-9.09,354.6-27.28v43.84H0c7.14-124.69,10.72-242.89,10.72-354.6Z"/>
    <path class="cls-1" d="M1075.15,665.59c-54.37,29.08-112.83,43.61-175.41,43.61-66.37,0-127.05-15.96-182.04-47.88-54.99-31.91-98.61-75.05-130.84-129.42-32.24-54.35-48.36-113.78-48.36-178.25s15.79-123.73,47.41-177.78c31.6-54.04,75.05-96.86,130.37-128.47C771.59,15.81,832.74,0,899.75,0s127.2,15.81,182.52,47.41c55.3,31.61,98.92,74.43,130.84,128.47,31.91,54.04,47.88,113.3,47.88,177.78s-15.17,122.47-45.51,175.88c-30.34,53.42-71.75,95.92-124.21,127.52,31.6,37.3,67.63,75.53,108.09,114.72h-39.82c-25.93-36.03-54.04-71.44-84.38-106.19ZM1060.93,649.47c-25.93-28.44-53.73-57.2-83.44-86.28h37.93c13.89,18.34,34.44,44.25,61.63,77.75,32.86-20.22,57.98-48.35,75.38-84.38,17.38-36.03,26.08-75.85,26.08-119.47,0-61.94-14.7-124.04-44.09-186.31-29.39-62.25-69.54-113.45-120.42-153.6-50.89-40.13-106.66-60.21-167.35-60.21-48.04,0-89.12,10.59-123.26,31.76-34.13,21.18-59.89,49.47-77.27,84.86-17.39,35.41-26.07,74.59-26.07,117.57,0,61.95,14.7,124.21,44.09,186.78,29.39,62.58,69.53,114.1,120.41,154.55,50.87,40.46,106.98,60.68,168.29,60.68,40.44,0,76.47-7.9,108.09-23.7Z"/>
    <path class="cls-1" d="M1396.86,354.6c0-113-3.58-231.2-10.72-354.6h218.21C1658.26,0,1703.07,7.79,1738.8,23.38c35.71,15.59,61.86,36.21,78.42,61.86,16.56,25.66,24.84,54.07,24.84,85.24s-11.21,62.83-33.61,91.08c-22.41,28.25-55.38,49.2-98.88,62.83,70.14,5.84,122.75,26.47,157.82,61.86,35.07,35.41,52.61,79.4,52.61,132-.65,34.43-9.74,66.09-27.28,94.98-17.54,28.91-44.66,52.12-81.35,69.65-36.7,17.53-82.32,26.3-136.87,26.3h-288.36c7.14-124.69,10.72-242.89,10.72-354.6ZM1566.37,322.45c64.3,0,110.89-13.64,139.79-40.92,28.89-27.28,43.35-64.3,43.35-111.06,0-50.66-15.27-88.97-45.79-114.95-30.54-25.97-78.91-38.97-145.15-38.97h-67.22c-5.84,101.97-8.77,203.94-8.77,305.89h83.78ZM1633.59,692.64c62.99,0,110.08-15.91,141.26-47.73,31.18-31.81,46.76-74.04,46.76-126.64,0-57.8-16.07-102.12-48.22-132.98-32.15-30.84-80.71-46.27-145.64-46.27h-145.15v43.84c0,103.26,2.92,206.53,8.77,309.79h142.23Z"/>
  </g>
</svg>